<svg width="38" height="30" viewBox="0 0 38 30" fill="none" xmlns="http://www.w3.org/2000/svg">
<path d="M7.78833 0C5.64833 0 4.06667 1.87333 4.13833 3.90333C4.205 5.855 4.11667 8.38333 3.48 10.4433C2.84167 12.51 1.76333 13.82 0 13.9883V15.885C1.76333 16.0533 2.84167 17.3633 3.48 19.43C4.11667 21.4917 4.205 24.0183 4.13667 25.97C4.06667 28 5.64833 29.8733 7.79 29.8733H29.7133C31.8533 29.8733 33.4367 28 33.3667 25.97C33.2983 24.0183 33.3867 21.4917 34.0217 19.43C34.6617 17.3633 35.7383 16.0533 37.5 15.885V13.9883C35.7367 13.82 34.6617 12.51 34.0217 10.4433C33.3867 8.38333 33.2983 5.855 33.3667 3.90333C33.4367 1.87333 31.8533 0 29.7133 0H7.78833ZM25.4233 18.3883C25.4233 21.185 23.3383 22.8817 19.8767 22.8817H13.9833C13.8998 22.8819 13.8171 22.8656 13.7398 22.8338C13.6626 22.802 13.5924 22.7553 13.5332 22.6963C13.4741 22.6373 13.4272 22.5672 13.3952 22.4901C13.3631 22.4129 13.3467 22.3302 13.3467 22.2467V7.62667C13.3469 7.54328 13.3635 7.46075 13.3956 7.38379C13.4278 7.30683 13.4747 7.23695 13.5338 7.17814C13.593 7.11933 13.6631 7.07274 13.7402 7.04103C13.8173 7.00932 13.8999 6.99311 13.9833 6.99333H19.8417C22.7283 6.99333 24.6233 8.555 24.6233 10.9567C24.6233 12.64 23.3483 14.15 21.725 14.4133V14.5017C23.935 14.7433 25.4233 16.275 25.4233 18.3883ZM19.2333 9.00667H15.8733V13.7533H18.7033C20.8917 13.7533 22.0967 12.8717 22.0967 11.2967C22.0967 9.82167 21.06 9.00667 19.2333 9.00667ZM15.8733 15.635V20.8667H19.3567C21.635 20.8667 22.84 19.9517 22.84 18.2333C22.84 16.5167 21.6017 15.635 19.21 15.635H15.8733Z" fill="url(#paint0_linear_23_75)"/>
<defs>
<linearGradient id="paint0_linear_23_75" x1="18.75" y1="0" x2="18.75" y2="29.8733" gradientUnits="userSpaceOnUse">
<stop stop-color="#0081A7"/>
<stop offset="1" stop-color="#00AFB9"/>
</linearGradient>
</defs>
</svg>
