<svg width="40" height="40" viewBox="0 0 40 40" fill="none" xmlns="http://www.w3.org/2000/svg">
<path d="M20.0001 36.6667C17.2168 36.6667 14.7335 34.1667 13.1668 29.8834C13.0501 29.55 13.2168 29.1667 13.5668 29.0667C13.9001 28.9334 14.2668 29.1167 14.3835 29.45C15.7335 33.1667 17.8335 35.3834 20.0001 35.3834C21.5668 35.3834 23.1168 34.25 24.3668 32.1834C24.4574 32.0421 24.5996 31.9419 24.763 31.904C24.9265 31.8661 25.0983 31.8935 25.2418 31.9805C25.3853 32.0675 25.4891 32.2071 25.5311 32.3695C25.5732 32.5319 25.5501 32.7044 25.4668 32.85C23.9668 35.3167 22.0335 36.6667 20.0001 36.6667ZM26.5168 29.5334C26.4544 29.5309 26.3927 29.5197 26.3335 29.5C25.9835 29.3834 25.8335 29.0334 25.9001 28.6834C26.6668 26.35 27.0335 23.6334 27.0335 20.8334C27.0335 14.4167 24.9501 8.73337 21.9835 6.90004C21.5668 7.50004 20.8335 7.96671 20.0001 7.96671C18.7335 7.96671 17.6835 6.93337 17.6835 5.65004C17.6835 4.36671 18.7335 3.33337 20.0001 3.33337C21.2835 3.33337 22.3335 4.35004 22.3501 5.61671C25.8835 7.50004 28.3335 13.6834 28.3335 20.8334C28.3335 23.75 27.9168 26.6 27.1335 29.0834C27.0501 29.35 26.8001 29.5334 26.5168 29.5334ZM20.0001 4.61671C19.4335 4.61671 18.9668 5.08337 18.9668 5.65004C18.9668 6.21671 19.4501 6.66671 20.0001 6.66671C20.5835 6.66671 21.0668 6.21671 21.0668 5.65004C21.0668 5.08337 20.5835 4.61671 20.0001 4.61671ZM6.80013 30.9C5.5168 30.9 4.4668 29.85 4.4668 28.5834C4.4668 27.7667 4.90013 27.0334 5.55013 26.6167C5.3168 22.6 9.4668 17.35 15.8335 13.7C18.4835 12.2 21.2501 11.1167 23.8668 10.5667C24.1668 10.4834 24.5501 10.7 24.6168 11.05C24.7001 11.4 24.4835 11.75 24.1668 11.8167C21.6668 12.35 19.0168 13.3834 16.5001 14.8167C10.7668 18.1 6.83346 22.8 6.83346 26.2667C8.10013 26.2834 9.1668 27.3167 9.1668 28.5834C9.1668 29.8667 8.08346 30.9 6.80013 30.9ZM6.80013 27.55C6.23346 27.55 5.7668 28.0167 5.7668 28.5834C5.7668 29.1667 6.23346 29.6167 6.80013 29.6167C7.3668 29.6167 7.85013 29.1667 7.85013 28.5834C7.85013 28.0167 7.3668 27.55 6.80013 27.55ZM30.8335 22.4C30.7168 22.4 30.5668 22.35 30.4501 22.25C30.3209 22.1366 30.2415 21.9769 30.229 21.8054C30.2166 21.6339 30.272 21.4643 30.3835 21.3334C32.9501 18.3334 33.8335 15.4334 32.7335 13.5667C31.9501 12.2167 30.1668 11.4667 27.7168 11.4334C27.3501 11.4334 27.0668 11.1334 27.0835 10.7834C27.0835 10.4334 27.3835 10.1667 27.7335 10.15C30.6501 10.1834 32.8335 11.1667 33.8501 12.9167C35.2501 15.3167 34.3335 18.6834 31.3668 22.1667C31.2335 22.3167 31.0501 22.4 30.8335 22.4ZM27.5001 31.5C24.1668 31.5 19.9001 30.2667 15.8335 27.95C13.2501 26.4667 10.9501 24.65 9.1668 22.7167C9.04958 22.5929 8.98425 22.4289 8.98425 22.2584C8.98425 22.0879 9.04958 21.9239 9.1668 21.8C9.4668 21.5667 9.8668 21.5834 10.1168 21.85C11.8001 23.6834 14.0001 25.4167 16.4835 26.8334C22.0001 30 27.9501 31.05 31.0835 29.5334C30.9501 29.25 30.8335 28.9167 30.8335 28.5834C30.8335 27.3 31.9168 26.2667 33.2001 26.2667C34.4835 26.2667 35.5335 27.3 35.5335 28.5834C35.532 29.0004 35.4185 29.4093 35.2049 29.7674C34.9912 30.1255 34.6852 30.4196 34.3189 30.6189C33.9527 30.8183 33.5395 30.9155 33.1228 30.9004C32.7061 30.8854 32.3011 30.7586 31.9501 30.5334C30.7835 31.1834 29.2668 31.5 27.5001 31.5ZM32.5001 29.3834C32.7168 29.5167 32.9501 29.6167 33.2001 29.6167C33.4742 29.6167 33.737 29.5078 33.9308 29.314C34.1246 29.1203 34.2335 28.8574 34.2335 28.5834C34.2335 28.3093 34.1246 28.0465 33.9308 27.8527C33.737 27.6589 33.4742 27.55 33.2001 27.55C32.6168 27.55 32.1668 28.0167 32.1668 28.5834C32.1668 28.8167 32.2501 29.0334 32.3835 29.2167C32.4501 29.25 32.5001 29.3167 32.5001 29.3834ZM7.43346 20C7.2168 20 7.00013 19.8667 6.88346 19.6667C5.38346 17.0834 5.13346 14.6834 6.1668 12.9C7.5668 10.5 10.9668 9.60004 15.5168 10.4167C15.8335 10.4834 16.1001 10.8334 16.0335 11.1667C15.9835 11.5167 15.6501 11.75 15.3001 11.6667C11.3668 10.9834 8.33346 11.6667 7.28346 13.55C6.48346 14.9167 6.73346 16.85 8.00013 19.0167C8.1668 19.3334 8.0668 19.7167 7.75013 19.9C7.65013 19.95 7.55013 20 7.43346 20ZM20.3501 22.3334C19.9523 22.4218 19.5357 22.3485 19.1918 22.1297C18.848 21.9109 18.6052 21.5645 18.5168 21.1667C18.4284 20.7689 18.5016 20.3522 18.7204 20.0084C18.9392 19.6646 19.2856 19.4218 19.6835 19.3334C20.5168 19.1667 21.3501 19.6834 21.5168 20.5167C21.6668 21.3334 21.1668 22.15 20.3501 22.3334Z" fill="url(#paint0_linear_23_76)"/>
<defs>
<linearGradient id="paint0_linear_23_76" x1="20.0001" y1="3.33337" x2="20.0001" y2="36.6667" gradientUnits="userSpaceOnUse">
<stop stop-color="#0081A7"/>
<stop offset="1" stop-color="#00AFB9"/>
</linearGradient>
</defs>
</svg>
