<svg width="120" height="120" viewBox="0 0 120 120" fill="none" xmlns="http://www.w3.org/2000/svg">
<path d="M12.9996 52.95L41.8996 24L50.3496 32.5C49.1496 36.75 51.0996 41.4 54.9996 43.65V71.35C51.9996 73.05 49.9996 76.3 49.9996 80C49.9996 82.6521 51.0532 85.1957 52.9285 87.071C54.8039 88.9464 57.3474 90 59.9996 90C62.6518 90 65.1953 88.9464 67.0707 87.071C68.946 85.1957 69.9996 82.6521 69.9996 80C69.9996 76.3 67.9996 73.05 64.9996 71.35V47.05L75.3496 57.5C74.9996 58.25 74.9996 59.1 74.9996 60C74.9996 62.6521 76.0532 65.1957 77.9285 67.071C79.8039 68.9464 82.3474 70 84.9996 70C87.6518 70 90.1953 68.9464 92.0707 67.071C93.946 65.1957 94.9996 62.6521 94.9996 60C94.9996 57.3478 93.946 54.8043 92.0707 52.9289C90.1953 51.0535 87.6518 50 84.9996 50C84.0996 50 83.2496 50 82.4996 50.35L69.6496 37.5C70.2704 35.1842 70.0298 32.7217 68.9723 30.5699C67.9148 28.4182 66.1123 26.7233 63.8996 25.8C61.7496 25 59.4996 24.8 57.4996 25.35L48.9996 16.9L52.9496 13C56.8496 9.04998 63.1496 9.04998 67.0496 13L107 52.95C110.95 56.85 110.95 63.15 107 67.05L67.0496 107C63.1496 110.95 56.8496 110.95 52.9496 107L12.9996 67.05C9.04961 63.15 9.04961 56.85 12.9996 52.95Z" fill="url(#paint0_linear_20_40)"/>
<defs>
<linearGradient id="paint0_linear_20_40" x1="59.9996" y1="10.0375" x2="59.9996" y2="109.962" gradientUnits="userSpaceOnUse">
<stop stop-color="#0081A7"/>
<stop offset="1" stop-color="#00AFB9"/>
</linearGradient>
</defs>
</svg>
