<svg width="30" height="30" viewBox="0 0 30 30" fill="none" xmlns="http://www.w3.org/2000/svg">
<path d="M5 0C3.67392 0 2.40215 0.526784 1.46447 1.46447C0.526784 2.40215 0 3.67392 0 5V25C0 26.3261 0.526784 27.5979 1.46447 28.5355C2.40215 29.4732 3.67392 30 5 30H25C26.3261 30 27.5979 29.4732 28.5355 28.5355C29.4732 27.5979 30 26.3261 30 25V5C30 3.67392 29.4732 2.40215 28.5355 1.46447C27.5979 0.526784 26.3261 0 25 0H5ZM17.2233 21.7583C18.4233 22.725 19.62 23.2 20.8167 23.1883C21.55 23.1883 22.1133 23.055 22.5033 22.785C22.6854 22.6668 22.8336 22.5032 22.9333 22.3103C23.0329 22.1174 23.0806 21.9019 23.0717 21.685C23.0741 21.4484 23.0246 21.2142 22.9267 20.9988C22.8288 20.7834 22.6848 20.5921 22.505 20.4383C22.1133 20.0967 21.3733 19.755 20.285 19.4117C18.9783 19.0333 17.9683 18.545 17.26 17.945C16.5633 17.345 16.21 16.5083 16.1967 15.4333C16.1967 14.4183 16.6367 13.57 17.5167 12.885C18.3733 12.2017 19.4667 11.8583 20.8 11.8583C22.6567 11.8583 24.1483 12.31 25.2717 13.215L23.9883 15.2133C23.5263 14.8539 22.9962 14.592 22.43 14.4433C21.9212 14.2732 21.3897 14.1805 20.8533 14.1683C20.22 14.1683 19.7117 14.285 19.3317 14.5167C18.9533 14.75 18.765 15.055 18.765 15.4333C18.765 15.85 18.9967 16.2033 19.46 16.4967C19.9267 16.7783 20.72 17.09 21.8433 17.4317C23.2 17.835 24.1667 18.3733 24.74 19.045C25.315 19.7167 25.6017 20.5733 25.6017 21.6117C25.6017 22.675 25.1933 23.5917 24.3733 24.3617C23.5667 25.12 22.3933 25.5167 20.8533 25.5533C18.8367 25.5533 17.15 24.9483 15.7933 23.7383L17.2233 21.7583ZM8.00667 22.8217C8.39833 23.0667 8.86833 23.1883 9.41833 23.1883C9.99333 23.1883 10.4683 23.0233 10.8483 22.6933C11.2267 22.3517 11.4167 21.7583 11.4167 20.915V12.0783H13.8917V21.3917C13.855 22.8333 13.44 23.8733 12.645 24.5083C12.2112 24.8772 11.7055 25.1519 11.16 25.315C10.6547 25.469 10.1299 25.5492 9.60167 25.5533C8.685 25.5533 7.87167 25.395 7.16333 25.0767C6.405 24.735 5.77 24.13 5.25667 23.2617L6.98 21.85C7.29667 22.2783 7.64 22.6017 8.00667 22.8217Z" fill="url(#paint0_linear_23_71)"/>
<defs>
<linearGradient id="paint0_linear_23_71" x1="15" y1="0" x2="15" y2="30" gradientUnits="userSpaceOnUse">
<stop stop-color="#0081A7"/>
<stop offset="1" stop-color="#00AFB9"/>
</linearGradient>
</defs>
</svg>
