<svg width="42" height="42" viewBox="0 0 42 42" fill="none" xmlns="http://www.w3.org/2000/svg">
<path d="M31.1111 8C31.8773 8 32.6121 8.29266 33.1539 8.81359C33.6956 9.33453 34 10.0411 34 10.7778V30.2222C34 30.9589 33.6956 31.6655 33.1539 32.1864C32.6121 32.7073 31.8773 33 31.1111 33H10.8889C10.1227 33 9.38791 32.7073 8.84614 32.1864C8.30436 31.6655 8 30.9589 8 30.2222V10.7778C8 10.0411 8.30436 9.33453 8.84614 8.81359C9.38791 8.29266 10.1227 8 10.8889 8H31.1111ZM30.3889 29.5278V22.1667C30.3889 20.9658 29.8928 19.8142 29.0097 18.965C28.1266 18.1159 26.9289 17.6389 25.68 17.6389C24.4522 17.6389 23.0222 18.3611 22.3289 19.4444V17.9028H18.2989V29.5278H22.3289V22.6806C22.3289 21.6111 23.2244 20.7361 24.3367 20.7361C24.873 20.7361 25.3874 20.941 25.7666 21.3056C26.1458 21.6703 26.3589 22.1649 26.3589 22.6806V29.5278H30.3889ZM13.6044 15.7222C14.248 15.7222 14.8653 15.4764 15.3204 15.0388C15.7754 14.6012 16.0311 14.0077 16.0311 13.3889C16.0311 12.0972 14.9478 11.0417 13.6044 11.0417C12.957 11.0417 12.3361 11.289 11.8783 11.7292C11.4205 12.1693 11.1633 12.7664 11.1633 13.3889C11.1633 14.6806 12.2611 15.7222 13.6044 15.7222ZM15.6122 29.5278V17.9028H11.6111V29.5278H15.6122Z" fill="#007E8D"/>
<rect x="1" y="1" width="40" height="40" rx="5" stroke="#007E8D" stroke-width="2"/>
</svg>
