<svg width="80" height="80" viewBox="0 0 80 80" fill="none" xmlns="http://www.w3.org/2000/svg">
<path d="M45.9975 25.368C45.8916 25.2621 45.7198 25.2621 45.6139 25.368L25.1566 45.8253C25.0507 45.9312 25.0507 46.103 25.1566 46.2089L29.4043 50.4566C29.5102 50.5626 29.682 50.5626 29.7879 50.4566L38.8587 41.3858L39.9406 42.4677C39.9428 42.4699 39.9449 42.472 39.9471 42.4742C43.1443 45.6714 48.3281 45.6714 51.5254 42.4742C54.7226 39.2769 54.7226 34.0931 51.5254 30.8959C51.5244 30.8949 51.5234 30.8939 51.5224 30.8929L50.2457 29.6163L50.2452 29.6157L45.9975 25.368Z" fill="url(#paint0_angular_3_130)"/>
<path d="M31.7519 10.1023C31.6154 9.96589 31.3942 9.96589 31.2577 10.1023L2.10234 39.2577C2.03331 39.3268 1.9992 39.4175 2.00001 39.508C1.99919 39.5985 2.0333 39.6892 2.10234 39.7583L31.2577 68.9137C31.3942 69.0501 31.6154 69.0501 31.7519 68.9137L36.1993 64.4662C36.3358 64.3298 36.3358 64.1085 36.1993 63.9721L11.7353 39.508L36.1993 15.0439C36.3358 14.9075 36.3358 14.6862 36.1993 14.5498L31.7519 10.1023Z" fill="#0081A7"/>
<path d="M11.7505 39.4927C11.5153 39.6681 11.2898 39.8626 11.0762 40.0762C8.68815 42.4642 8.68815 46.336 11.0762 48.724C13.4642 51.112 17.3359 51.112 19.724 48.724C19.9323 48.5157 20.1224 48.296 20.2944 48.0671L20.2945 48.067L11.7354 39.5078L11.7505 39.4927Z" fill="#00475B"/>
<path d="M36.2249 63.9872L13.7904 41.5527L11.2249 44.1182V48.8704L31.2833 68.9288C31.4198 69.0653 31.641 69.0653 31.7775 68.9288L36.2249 64.4814C36.3614 64.3449 36.3614 64.1237 36.2249 63.9872Z" fill="#00475B"/>
<path fill-rule="evenodd" clip-rule="evenodd" d="M11.4629 49.1099L11.2239 48.8709V48.8683C11.1737 48.8214 11.1242 48.7734 11.0752 48.7245C8.68717 46.3365 8.68717 42.4647 11.0752 40.0767C11.2888 39.8631 11.5143 39.6686 11.7495 39.4932L11.7344 39.5083L13.7844 41.5583L13.7894 41.5532L20.2777 48.0414C20.1006 48.2797 19.904 48.5081 19.6878 48.7243C17.4361 50.976 13.8652 51.1045 11.4629 49.1099Z" fill="url(#paint1_radial_3_130)"/>
<path d="M47.2481 68.9289C47.3846 69.0654 47.6058 69.0654 47.7423 68.9289L76.8977 39.7735C76.9667 39.7045 77.0008 39.6138 77 39.5233C77.0008 39.4328 76.9667 39.342 76.8977 39.273L47.7423 10.1176C47.6058 9.98113 47.3846 9.98113 47.2481 10.1176L42.8007 14.565C42.6642 14.7015 42.6642 14.9227 42.8007 15.0592L67.2647 39.5232L42.8007 63.9873C42.6642 64.1238 42.6642 64.345 42.8007 64.4815L47.2481 68.9289Z" fill="#00AFB9"/>
<path d="M67.2495 39.5386C67.4847 39.3632 67.7102 39.1687 67.9238 38.9551C70.3118 36.567 70.3118 32.6953 67.9238 30.3073C65.5358 27.9192 61.6641 27.9192 59.276 30.3073C59.0677 30.5156 58.8776 30.7352 58.7056 30.9641L58.7055 30.9643L67.2646 39.5234L67.2495 39.5386Z" fill="#005B61"/>
<path d="M42.7751 15.044L65.2096 37.4785L67.7751 34.913V30.1608L47.7167 10.1024C47.5802 9.96597 47.359 9.96597 47.2225 10.1024L42.7751 14.5499C42.6386 14.6863 42.6386 14.9076 42.7751 15.044Z" fill="#005B61"/>
<path fill-rule="evenodd" clip-rule="evenodd" d="M67.5371 29.9218L67.7761 30.1608V30.1634C67.8263 30.2104 67.8758 30.2583 67.9248 30.3073C70.3128 32.6953 70.3128 36.567 67.9248 38.9551C67.7112 39.1687 67.4857 39.3632 67.2505 39.5386L67.2656 39.5234L65.2156 37.4735L65.2106 37.4785L58.7223 30.9903C58.8994 30.752 59.096 30.5236 59.3122 30.3075C61.5639 28.0558 65.1348 27.9272 67.5371 29.9218Z" fill="url(#paint2_radial_3_130)"/>
<defs>
<radialGradient id="paint0_angular_3_130" cx="0" cy="0" r="1" gradientUnits="userSpaceOnUse" gradientTransform="translate(44.9435 35.2673) rotate(134.871) scale(12.7652 12.3514)">
<stop stop-color="#CCDBDC"/>
<stop offset="1" stop-color="#879192"/>
</radialGradient>
<radialGradient id="paint1_radial_3_130" cx="0" cy="0" r="1" gradientUnits="userSpaceOnUse" gradientTransform="translate(20.0993 48.0001) rotate(-133.956) scale(27.1338 26.1809)">
<stop offset="0.328036" stop-color="#00475B"/>
<stop offset="0.501367"/>
</radialGradient>
<radialGradient id="paint2_radial_3_130" cx="0" cy="0" r="1" gradientUnits="userSpaceOnUse" gradientTransform="translate(58.9007 31.0317) rotate(46.0435) scale(27.1338 26.1809)">
<stop offset="0.328036" stop-color="#005B61"/>
<stop offset="0.501367"/>
</radialGradient>
</defs>
</svg>
