<svg width="40" height="40" viewBox="0 0 40 40" fill="none" xmlns="http://www.w3.org/2000/svg">
<path fill-rule="evenodd" clip-rule="evenodd" d="M26.121 10.2235C25.2732 7.56081 23.9134 5.20419 21.9972 3.17631C21.5128 2.66334 20.9744 2.1934 20.6364 1.55531C20.4229 1.15138 20.2194 0.741861 20.0114 0.335299L19.8792 0L19.8424 0.132018C19.8252 0.795391 19.4528 1.24497 18.9892 1.665C18.467 2.13724 17.9813 2.65021 17.4799 3.14577L15.9381 5.19139L14.6916 7.504L13.8579 9.7749L13.8328 9.81004C13.3741 11.3302 13.1478 12.8934 13.0368 14.4717C12.9948 15.0651 13.043 15.6668 13.0759 16.2631C13.1231 17.1157 13.2699 17.9534 13.49 18.7787C14.2899 21.7757 15.9134 24.2614 18.1333 26.3737C18.5454 26.7661 18.9911 27.1231 19.4212 27.4962L19.6116 28.1556L19.7887 29.1789L19.8734 30.2472C19.8724 30.4639 19.8636 30.6817 19.8763 30.8978C19.8799 30.9533 19.9515 31.0045 19.9919 31.0577L20.3513 31.1851L20.7253 31.3319L20.6612 30.3825L20.6583 29.4472L20.7875 28.0226L20.8813 27.7126L21.1498 27.2328C21.4812 26.9641 21.8364 26.7198 22.1382 26.4206C22.6842 25.8798 23.2291 25.3313 23.7178 24.7386C24.3535 23.9702 24.8965 23.1284 25.3354 22.2309C25.6281 21.6289 25.9042 21.0148 26.1324 20.3859C26.3336 19.8316 26.4582 19.2487 26.6168 18.6782L26.6585 18.5551C26.9856 17.0155 27.0407 15.4602 26.9205 13.895C26.8238 12.6336 26.5299 11.4163 26.121 10.2235ZM19.6425 26.7339C19.6927 26.4807 19.7549 26.2289 19.8001 25.9747C19.7549 26.2289 19.693 26.4807 19.6425 26.7339ZM33.8271 32.7959C33.5582 32.2761 33.1636 31.8813 32.6421 31.6222C32.2052 31.4055 31.7354 31.3102 31.2523 31.2964C30.8903 31.2859 30.527 31.3046 30.1643 31.3092C29.8423 31.3132 29.52 31.3188 29.1981 31.3158C28.8195 31.3119 28.4408 31.3004 28.0622 31.2895C27.9994 31.2876 27.9548 31.3004 27.9255 31.3647C27.8796 31.4649 27.8252 31.5615 27.7689 31.6711L27.8321 31.6915C28.0199 31.725 28.2087 31.7536 28.3956 31.7913C28.6358 31.8396 28.7439 31.9789 28.755 32.1831C28.7708 32.4743 28.7781 32.7657 28.7768 33.0573C28.7719 34.2113 28.7638 35.3653 28.7553 36.519C28.7547 36.5952 28.7534 36.6747 28.7329 36.7463C28.7091 36.829 28.6834 36.9361 28.6222 36.9768C28.5121 37.0482 28.3885 37.0957 28.2592 37.1164C28.0766 37.1466 28.046 37.1548 27.989 37.3361L27.9642 37.4267C27.9369 37.5256 27.9515 37.5449 28.0538 37.5459C28.6404 37.5525 29.2267 37.5653 29.813 37.5633C30.3479 37.5614 30.8828 37.5942 31.4157 37.4927C31.9193 37.3972 32.3894 37.2297 32.8185 36.9463C33.3752 36.5781 33.7756 36.0862 33.9869 35.4442C34.1575 34.9256 34.1956 34.3966 34.1376 33.8544C34.1017 33.4848 33.9963 33.1256 33.8271 32.7959ZM32.7993 35.9686C32.4855 36.5578 32.0173 36.9512 31.3483 37.055C30.9293 37.1197 30.5097 37.1009 30.1103 36.941C29.8573 36.8399 29.7632 36.6195 29.7554 36.3591C29.7482 36.1039 29.7446 35.8486 29.7447 35.5933C29.7434 34.6954 29.7434 33.7977 29.7447 32.9C29.7453 32.6173 29.7502 32.3339 29.7548 32.0508C29.758 31.8518 29.7994 31.7851 29.9918 31.769C30.8369 31.6974 31.6433 31.7894 32.3129 32.3894C32.727 32.7604 32.9627 33.2337 33.0607 33.7772C33.1014 34.0038 33.1138 34.2356 33.1392 34.4655C33.1187 34.9903 33.0483 35.501 32.7993 35.9686ZM39.8927 34.9962C39.726 34.587 39.4102 34.3305 39.0134 34.1663C38.878 34.1102 38.7383 34.0639 38.5921 34.0094L38.6432 33.9765C38.8011 33.8744 38.9769 33.792 39.113 33.6662C39.4438 33.3604 39.5811 32.9759 39.5167 32.5191C39.4555 32.0846 39.2406 31.7657 38.8568 31.5588C38.5085 31.3716 38.1328 31.3033 37.7441 31.3037C37.0715 31.3043 36.3986 31.3145 35.726 31.3158C35.4942 31.3161 35.2624 31.2987 35.0306 31.2954C34.9857 31.2948 34.9189 31.3063 34.8997 31.3365C34.8467 31.4186 34.8115 31.5132 34.7738 31.6045C34.7519 31.6577 34.7734 31.6869 34.8337 31.6948C34.9955 31.7171 35.1569 31.745 35.319 31.7693C35.543 31.8032 35.6514 31.9207 35.6651 32.1483L35.668 32.2833C35.6684 32.991 35.6706 33.6987 35.6677 34.4064C35.6635 35.1131 35.6569 35.8199 35.6479 36.5266C35.6469 36.6156 35.6348 36.7049 35.6221 36.7932C35.6029 36.9266 35.5323 37.0185 35.3969 37.0474L35.0137 37.1236C34.9684 37.1328 34.903 37.1315 34.8844 37.1597C34.8141 37.2658 34.7575 37.3817 34.7653 37.5216L34.8047 37.5325L36.0916 37.5643L36.3497 37.5633C36.7951 37.5581 37.2411 37.5669 37.6858 37.544C38.1673 37.5197 38.6195 37.3755 39.0375 37.1275C39.4825 36.8632 39.825 36.5147 39.9467 35.9906C40.0249 35.656 40.0252 35.3194 39.8927 34.9962ZM36.6232 31.9812C36.6252 31.839 36.6873 31.7772 36.8273 31.7736C37.1721 31.7641 37.5146 31.766 37.8473 31.8859C38.2776 32.0409 38.5423 32.4153 38.5374 32.8728C38.5352 33.0485 38.5378 33.2225 38.4736 33.3913C38.347 33.7237 38.1041 33.899 37.7597 33.9332C37.58 33.9516 37.3987 33.9535 37.2385 33.9621L36.7039 33.9384C36.633 33.9358 36.602 33.9043 36.6024 33.8307L36.6232 31.9812ZM38.8389 36.4126C38.6667 36.7906 38.3528 36.9893 37.9599 37.0583C37.6467 37.1127 37.3256 37.0985 37.0184 37.0165C36.7886 36.9571 36.6948 36.7709 36.6489 36.5643C36.618 36.4261 36.6232 36.2616 36.6206 36.1177C36.6164 35.8957 36.6196 35.435 36.6196 35.435H36.6151C36.6151 35.1066 36.616 34.8222 36.6141 34.5072C36.6138 34.4392 36.6252 34.4054 36.7075 34.408C36.9999 34.4169 37.2932 34.4218 37.5855 34.4333C37.8469 34.4435 38.0918 34.5217 38.3219 34.6468C38.6722 34.8373 38.8832 35.1289 38.9411 35.5295C38.9854 35.8333 38.9665 36.1322 38.8389 36.4126ZM6.74395 36.7666L6.75014 34.9811C6.75112 34.7125 6.71726 34.4491 6.63001 34.1943C6.38943 33.4925 5.72596 33.1729 5.03515 33.4248C4.72099 33.5394 4.43939 33.7131 4.17049 33.9102C4.0139 34.0251 4.0139 34.0251 3.90061 33.8613C3.57994 33.3976 3.12189 33.2389 2.58864 33.41C2.24389 33.5204 1.94243 33.7092 1.65692 33.9286C1.63022 33.9489 1.57651 33.9716 1.56056 33.9594C1.53386 33.9394 1.51531 33.8918 1.51596 33.856L1.53549 33.5388C1.53712 33.4721 1.52442 33.4051 1.51791 33.3352C1.38899 33.3801 1.28612 33.4251 1.17836 33.4514C0.845325 33.5335 0.510009 33.609 0.175019 33.6862C0.0939573 33.7049 0.00833783 33.7296 0.00052465 33.8235C-0.00761408 33.9158 0.0806097 33.9312 0.148975 33.9588C0.292868 34.0177 0.435893 34.0789 0.578049 34.1424C0.697526 34.1956 0.742126 34.2918 0.741475 34.4212C0.739196 34.9745 0.742777 35.5272 0.739522 36.0806C0.738219 36.3056 0.727802 36.5302 0.71771 36.7551C0.708594 36.9545 0.641206 37.0379 0.449783 37.0881C0.348211 37.1151 0.245012 37.1331 0.14279 37.1574C0.120327 37.1627 0.0819119 37.1771 0.0815864 37.1883C0.0773542 37.2858 0.0721455 37.3857 0.088423 37.4806C0.0916785 37.4977 0.193901 37.4977 0.250547 37.5042L0.288636 37.5019C0.683202 37.4956 1.07788 37.4901 1.47266 37.4855C1.68199 37.4832 1.89099 37.4852 2.11822 37.4852L2.14264 37.1666C2.01242 37.1427 1.8962 37.1246 1.78161 37.0993C1.60288 37.0599 1.5267 36.9643 1.52214 36.7824L1.51889 36.522C1.51693 35.8464 1.51433 35.1713 1.51433 34.4957C1.51433 34.3975 1.5547 34.3197 1.64032 34.2609C1.82165 34.1374 2.01307 34.0392 2.225 33.9844C2.67166 33.8691 3.05906 34.0294 3.23095 34.4126C3.28532 34.5335 3.32796 34.6672 3.34001 34.7985C3.40317 35.4757 3.37582 36.1535 3.33773 36.8307C3.32959 36.9768 3.26155 37.0504 3.11864 37.0862L2.78267 37.1578C2.75565 37.1647 2.71626 37.1463 2.7143 37.1689C2.70682 37.2625 2.71105 37.406 2.71105 37.406H2.79113L3.81401 37.4399C4.09431 37.4392 4.37493 37.4734 4.6549 37.4806C4.70504 37.4816 4.74964 37.4891 4.75257 37.4307C4.75552 37.3399 4.75433 37.2491 4.74899 37.1584L4.6956 37.1489L4.40749 37.0835C4.21313 37.0372 4.14607 36.9627 4.14542 36.7643C4.14314 36.2753 4.14965 35.7867 4.14542 35.298C4.14297 35.0185 4.13265 34.7392 4.11449 34.4603C4.10961 34.386 4.121 34.3374 4.1796 34.2957C4.34941 34.1704 4.5405 34.0775 4.74345 34.0215C5.37339 33.854 5.88906 34.2025 5.92162 34.8576C5.95352 35.4895 5.94017 36.1236 5.93529 36.7568C5.93366 36.9771 5.86139 37.0438 5.6462 37.1029L5.57198 37.1223C5.35158 37.1755 5.35353 37.1755 5.36655 37.4116C5.37079 37.4855 5.39097 37.5046 5.4691 37.5026C5.91803 37.4924 6.36697 37.4898 6.8159 37.4858C6.99951 37.4842 7.18312 37.4858 7.38301 37.4858L7.4237 37.1784C7.24823 37.1315 7.08643 37.0967 6.93017 37.0451C6.79214 36.9978 6.7433 36.9138 6.74395 36.7666ZM22.204 34.0603C22.3889 33.8872 22.3902 33.6586 22.3384 33.4048C22.1919 33.5595 22.0278 33.6307 21.8407 33.6442C21.5897 33.6622 21.3432 33.6402 21.1095 33.5394C20.4773 33.2655 19.8548 33.2849 19.2343 33.5854C18.7125 33.8376 18.3915 34.2307 18.3592 34.8268C18.3387 35.2087 18.4097 35.5703 18.6623 35.874C18.8137 36.056 19.008 36.1739 19.2271 36.2553C19.3216 36.2904 19.3287 36.3358 19.2496 36.3965C19.1912 36.441 19.1307 36.4827 19.0683 36.5213C18.936 36.6052 18.803 36.6877 18.6692 36.7689C18.5907 36.8169 18.564 36.878 18.5897 36.9716C18.6649 37.2468 18.8586 37.4057 19.1008 37.5216L19.1891 37.5837L19.1119 37.6615C18.8746 37.8556 18.6278 38.0389 18.4006 38.2448C18.2098 38.4178 18.1483 38.6497 18.2059 38.9055C18.3221 39.4162 18.6578 39.7321 19.134 39.8773C19.9665 40.1314 20.7481 39.9856 21.4607 39.4881C21.8833 39.1929 22.1864 38.8086 22.2785 38.2799C22.3817 37.6858 22.0545 37.1702 21.4689 37.0638C21.0815 36.9929 20.685 36.9725 20.293 36.9272C20.11 36.9062 19.9245 36.8937 19.7464 36.8514C19.595 36.8152 19.5198 36.6908 19.5338 36.5693C19.5478 36.4497 19.6738 36.3384 19.818 36.3269C20.1084 36.3033 20.3929 36.2576 20.6605 36.1341C21.3696 35.807 21.6987 35.2343 21.6164 34.4632C21.6056 34.3594 21.5822 34.257 21.561 34.1361C21.7879 34.1746 22.02 34.2327 22.204 34.0603ZM20.0524 37.6783C20.3409 37.6868 20.669 37.7049 20.9861 37.7985C21.2651 37.8806 21.4946 38.0244 21.5623 38.3387C21.644 38.7183 21.463 39.096 21.0987 39.2989C20.7576 39.4888 20.3871 39.5045 20.0114 39.4654C19.6898 39.4319 19.4003 39.3196 19.1685 39.0799C18.8632 38.7643 18.8616 38.3275 19.1672 38.0129C19.4404 37.7318 19.5866 37.6737 20.0524 37.6783ZM20.7742 35.3919C20.6062 35.9341 20.1172 36.009 19.734 35.8356C19.4075 35.6882 19.2652 35.3979 19.1907 35.0665C19.1617 34.9391 19.1549 34.8067 19.1379 34.6764C19.1448 34.4895 19.1754 34.3102 19.2551 34.142C19.4996 33.6242 20.1003 33.655 20.4327 33.8895C20.5752 33.99 20.6745 34.1266 20.7367 34.2885C20.8751 34.6409 20.8883 35.0308 20.7742 35.3919ZM17.7238 37.1203C17.6075 37.1024 17.4925 37.0765 17.3797 37.0428C17.1817 36.9817 17.1576 36.9443 17.1553 36.7331C17.1495 36.1446 17.1456 35.5561 17.1391 34.968C17.1358 34.7033 17.1046 34.4422 17.0242 34.1893C16.8125 33.5227 16.1644 33.1647 15.5159 33.3614C15.1565 33.4708 14.8479 33.6741 14.5604 33.9128L14.4556 33.9939L14.4559 33.8852C14.4627 33.7601 14.4761 33.635 14.4751 33.5099C14.4744 33.4445 14.4497 33.3788 14.4377 33.3214C14.1925 33.3959 13.9728 33.4708 13.7485 33.5279C13.5235 33.5851 13.294 33.6238 13.0664 33.6705C12.9535 33.6934 12.8705 33.7624 12.8724 33.8409C12.8754 33.9516 12.9662 33.9729 13.0456 34.0061C13.1895 34.0655 13.3331 34.1256 13.4753 34.1893C13.5769 34.235 13.6183 34.3197 13.6173 34.4297C13.6101 35.1946 13.6056 35.9597 13.5945 36.7249C13.5912 36.9666 13.5307 37.0303 13.295 37.0835L13.1921 37.1042C12.974 37.142 12.9678 37.1509 12.9828 37.383L12.9841 37.4215C12.9815 37.5108 13.0202 37.5397 13.1114 37.5387C13.6909 37.5315 14.2704 37.5289 14.8501 37.5308C15.0985 37.5318 15.1252 37.5121 15.12 37.2546L15.1083 37.144C14.9664 37.12 14.8306 37.1026 14.6978 37.073C14.5588 37.0418 14.509 36.9844 14.4959 36.8418C14.4839 36.7115 14.48 36.5791 14.4787 36.4478C14.4722 35.8463 14.4673 35.2451 14.464 34.6442C14.4634 34.4928 14.4911 34.3522 14.6291 34.2547C14.8323 34.1082 15.0718 34.0216 15.3209 34.0044C15.8379 33.9686 16.2308 34.2777 16.2588 34.7975C16.2933 35.4389 16.2829 36.0826 16.291 36.7253C16.2917 36.7732 16.2832 36.8215 16.2767 36.8691C16.2643 36.963 16.2187 37.0336 16.1243 37.0579C16.0322 37.0822 15.9388 37.1039 15.8447 37.1184C15.7044 37.1394 15.7014 37.1384 15.6907 37.2812L15.6943 37.3775C15.7109 37.5436 15.7112 37.5387 15.8779 37.5371C16.4385 37.5322 16.9989 37.5299 17.559 37.5302C17.7934 37.5308 17.81 37.5197 17.812 37.276L17.8113 37.2182C17.8149 37.1558 17.7872 37.1305 17.7238 37.1203ZM25.5539 33.4018C24.9663 33.257 24.4089 33.3647 23.8796 33.6409C23.3652 33.9092 23.0214 34.324 22.8905 34.8967C22.7584 35.4757 22.8215 36.0405 23.0751 36.5781C23.2402 36.9272 23.4941 37.1972 23.8399 37.3725C24.6492 37.7837 25.6392 37.5972 26.274 37.0471C26.775 36.6133 26.9589 36.0356 26.97 35.3207C26.9632 35.2491 26.9563 35.1112 26.9375 34.9745C26.831 34.1962 26.2968 33.5851 25.5539 33.4018ZM25.9989 36.4083C25.843 37.0277 25.312 37.3029 24.713 37.0901C24.4073 36.9817 24.1787 36.7745 24.0251 36.4944C23.6715 35.8507 23.6035 35.1663 23.8047 34.4642C23.9388 33.9966 24.3204 33.7407 24.7742 33.7729C25.1798 33.8015 25.4917 33.9979 25.7206 34.3309C25.9618 34.6823 26.0549 35.0819 26.0796 35.5016C26.0839 35.5689 26.0803 35.6363 26.0803 35.7039L26.1089 35.7072C26.0731 35.9414 26.0562 36.1801 25.9989 36.4083ZM10.7749 33.3916C10.1567 33.2491 9.57754 33.39 9.04103 33.7069C8.57712 33.9808 8.27729 34.39 8.16237 34.9246C8.05462 35.4241 8.09856 35.9151 8.27404 36.3936C8.38082 36.6852 8.54261 36.9417 8.77994 37.1417C9.27966 37.5624 9.86369 37.6688 10.4852 37.5515C11.0113 37.452 11.4735 37.2162 11.8095 36.7752C12.124 36.3627 12.2438 35.8891 12.2562 35.3758C12.2376 35.2133 12.233 35.0478 12.1989 34.8892C12.0289 34.0974 11.5699 33.5746 10.7749 33.3916ZM11.2792 36.4064C11.1285 37.0225 10.589 37.3046 9.99424 37.0918C9.61237 36.9548 9.36365 36.6727 9.20641 36.3111C8.95443 35.7302 8.903 35.1256 9.0661 34.5128C9.19111 34.0442 9.56777 33.699 10.1443 33.7818C10.4982 33.8324 10.7743 34.0146 10.98 34.3046C11.258 34.6957 11.3495 35.1437 11.3622 35.6143V35.7105L11.3856 35.7141C11.3515 35.9453 11.3345 36.1804 11.2792 36.4064Z" fill="url(#paint0_linear_23_105)"/>
<defs>
<linearGradient id="paint0_linear_23_105" x1="20" y1="0" x2="20" y2="40" gradientUnits="userSpaceOnUse">
<stop stop-color="#0081A7"/>
<stop offset="1" stop-color="#00AFB9"/>
</linearGradient>
</defs>
</svg>
