<svg width="40" height="40" viewBox="0 0 40 40" fill="none" xmlns="http://www.w3.org/2000/svg">
<path d="M26.625 7.5C26.5255 7.5 26.4302 7.53951 26.3598 7.60983C26.2895 7.68016 26.25 7.77554 26.25 7.875V14.7462L24.6925 13.8375C24.5964 13.7806 24.4867 13.7506 24.375 13.7506C24.2633 13.7506 24.1536 13.7806 24.0575 13.8375L20.315 16.02C20.2193 16.0752 20.1398 16.1547 20.0846 16.2503C20.0293 16.346 20.0001 16.4545 20 16.565V20.935C20 21.16 20.12 21.3675 20.315 21.48L24.0575 23.6625C24.1536 23.7194 24.2633 23.7494 24.375 23.7494C24.4867 23.7494 24.5964 23.7194 24.6925 23.6625L28.435 21.48C28.5307 21.4248 28.6102 21.3453 28.6654 21.2497C28.7207 21.154 28.7499 21.0455 28.75 20.935V9.0375C28.7497 8.92849 28.7209 8.82144 28.6666 8.72695C28.6122 8.63246 28.5341 8.5538 28.44 8.49875L26.8112 7.55125C26.7552 7.51813 26.6914 7.50045 26.6263 7.5H26.625ZM14.375 13.7525C14.2635 13.7524 14.154 13.7817 14.0575 13.8375L10.315 16.02C10.2193 16.0752 10.1398 16.1547 10.0846 16.2503C10.0293 16.346 10.0001 16.4545 10 16.565V20.935C10 21.16 10.12 21.3675 10.315 21.48L14.0575 23.6625C14.2538 23.775 14.495 23.775 14.6925 23.6625L18.435 21.48C18.5307 21.4248 18.6102 21.3453 18.6654 21.2497C18.7207 21.154 18.7499 21.0455 18.75 20.935V16.565C18.7501 16.4545 18.7211 16.3458 18.6658 16.2501C18.6105 16.1544 18.5309 16.075 18.435 16.02L14.6925 13.8375C14.596 13.7817 14.4865 13.7524 14.375 13.7525ZM34.375 13.7525C34.2635 13.7519 34.1538 13.7813 34.0575 13.8375L30.315 16.02C30.2193 16.0752 30.1398 16.1547 30.0846 16.2503C30.0293 16.346 30.0001 16.4545 30 16.565V20.935C30 21.16 30.12 21.3675 30.315 21.48L33.945 23.6737C34.0409 23.732 34.1508 23.7632 34.2631 23.7641C34.3753 23.7649 34.4857 23.7355 34.5825 23.6788L36.3675 22.6413C36.4095 22.6165 36.4443 22.5812 36.4685 22.5389C36.4927 22.4966 36.5054 22.4487 36.5054 22.4C36.5054 22.3513 36.4927 22.3034 36.4685 22.2611C36.4443 22.2188 36.4095 22.1835 36.3675 22.1587L32.5 19.88V17.6375L34.375 16.5463L36.25 17.6375V19.2C36.25 19.4087 36.425 19.4412 36.5425 19.3712C37.1744 19.0023 37.8069 18.6344 38.44 18.2675C38.5342 18.2125 38.6123 18.1339 38.6667 18.0394C38.7211 17.9449 38.7498 17.8378 38.75 17.7287V16.5663C38.7501 16.4557 38.7211 16.3471 38.6658 16.2514C38.6105 16.1557 38.5309 16.0763 38.435 16.0213L34.6925 13.8388C34.5961 13.7827 34.4865 13.7534 34.375 13.7538V13.7525ZM4.375 13.755C4.26347 13.7544 4.15383 13.7838 4.0575 13.84L0.315 16.02C0.219204 16.0757 0.139702 16.1556 0.0844294 16.2517C0.0291564 16.3478 4.49147e-05 16.4567 0 16.5675V22.1462C0 22.4187 0.295 22.5875 0.53 22.4513L2.19 21.485C2.28428 21.4298 2.36249 21.351 2.41687 21.2563C2.47125 21.1615 2.49991 21.0542 2.5 20.945V17.6412L4.375 16.5475L6.25 17.6412V20.945C6.25019 21.054 6.2789 21.1611 6.33328 21.2556C6.38766 21.3502 6.46582 21.4288 6.56 21.4838L8.22 22.4513C8.2736 22.4825 8.33449 22.499 8.39653 22.4992C8.45857 22.4994 8.51955 22.4832 8.57332 22.4522C8.62709 22.4213 8.67174 22.3767 8.70276 22.323C8.73378 22.2692 8.75008 22.2083 8.75 22.1462V16.5675C8.74996 16.4567 8.72084 16.3478 8.66557 16.2517C8.6103 16.1556 8.5308 16.0757 8.435 16.02L4.6925 13.84C4.59617 13.7838 4.48653 13.7544 4.375 13.755ZM24.375 16.545L26.25 17.6388V19.8612L24.375 20.955L22.5 19.8612V17.6375L24.375 16.5437V16.545ZM34.375 17.505L33.3037 18.13V19.3775L34.375 20L35.4463 19.3775V18.13L34.375 17.505ZM19.2575 22.4975C19.1276 22.4968 18.9998 22.5295 18.8863 22.5925L15.3712 24.625C15.2581 24.6891 15.1641 24.7822 15.0989 24.8947C15.0336 25.0072 14.9995 25.135 15 25.265V29.3225C15 29.5838 15.1462 29.83 15.3712 29.9625L16.2962 30.49C16.74 30.7088 16.9038 30.7087 17.105 30.7087C17.7675 30.7087 18.145 30.3125 18.145 29.6125V25.6037C18.1453 25.5901 18.1429 25.5765 18.1379 25.5638C18.1329 25.551 18.1254 25.5394 18.1159 25.5296C18.1063 25.5199 18.0949 25.5121 18.0823 25.5068C18.0697 25.5015 18.0562 25.4987 18.0425 25.4988H17.5975C17.5697 25.4988 17.5429 25.5098 17.5233 25.5295C17.5036 25.5492 17.4925 25.5759 17.4925 25.6037V29.6125C17.4925 29.9163 17.1712 30.2288 16.6475 29.9675L15.685 29.4125C15.6693 29.4026 15.6563 29.389 15.6471 29.3728C15.638 29.3567 15.6329 29.3386 15.6325 29.32V25.2625C15.6325 25.2262 15.65 25.1837 15.6862 25.165L19.2013 23.1387C19.2181 23.1294 19.237 23.1246 19.2562 23.1246C19.2755 23.1246 19.2944 23.1294 19.3113 23.1387L22.83 25.1638C22.8662 25.1838 22.8837 25.22 22.8837 25.2625V29.32C22.8837 29.3395 22.8787 29.3586 22.8693 29.3756C22.8599 29.3926 22.8464 29.407 22.83 29.4175L19.3113 31.4512C19.2944 31.4606 19.2755 31.4654 19.2562 31.4654C19.237 31.4654 19.2181 31.4606 19.2013 31.4512L18.3037 30.9162C18.2787 30.9037 18.2413 30.8975 18.2175 30.91C18.053 31.0155 17.8746 31.0975 17.6875 31.1538C17.6262 31.1725 17.5437 31.21 17.72 31.3075L18.8863 32.0012C19.0003 32.0633 19.1277 32.0968 19.2575 32.0988C19.3868 32.1 19.5139 32.0645 19.6238 31.9963L23.14 29.9625C23.2531 29.8984 23.3471 29.8053 23.4124 29.6928C23.4776 29.5803 23.5117 29.4525 23.5113 29.3225V25.265C23.5096 25.1354 23.4746 25.0084 23.4096 24.8963C23.3445 24.7842 23.2517 24.6908 23.14 24.625L19.6238 22.5938C19.5121 22.5304 19.3858 22.4977 19.2575 22.4988V22.4975ZM24.7412 24.37C24.6526 24.3702 24.5649 24.3878 24.483 24.4219C24.4012 24.4559 24.3269 24.5058 24.2643 24.5686C24.2018 24.6314 24.1522 24.7059 24.1184 24.7878C24.0846 24.8698 24.0673 24.9576 24.0675 25.0463C24.0677 25.1349 24.0853 25.2226 24.1194 25.3045C24.1534 25.3863 24.2033 25.4606 24.2661 25.5232C24.3289 25.5857 24.4034 25.6353 24.4853 25.6691C24.5673 25.7029 24.6551 25.7202 24.7438 25.72C24.9228 25.7197 25.0943 25.6482 25.2207 25.5214C25.347 25.3946 25.4178 25.2228 25.4175 25.0437C25.4172 24.8647 25.3457 24.6932 25.2189 24.5668C25.0921 24.4405 24.9203 24.3697 24.7412 24.37ZM24.7338 24.4775C25.0513 24.4775 25.3087 24.7275 25.3087 25.0437C25.3065 25.1955 25.2452 25.3405 25.1378 25.4478C25.0305 25.5552 24.8855 25.6165 24.7338 25.6188C24.5828 25.6171 24.4387 25.5556 24.333 25.4478C24.2273 25.34 24.1687 25.1947 24.17 25.0437C24.1695 24.9695 24.1837 24.8958 24.2119 24.827C24.24 24.7583 24.2814 24.6958 24.3339 24.6431C24.3863 24.5905 24.4486 24.5487 24.5172 24.5203C24.5859 24.4919 24.6595 24.4773 24.7338 24.4775ZM24.4875 24.6613V25.42H24.6312V25.1175H24.7662C24.8212 25.1175 24.8338 25.14 24.8463 25.1825C24.8463 25.1887 24.8687 25.3862 24.875 25.4225H25.0312C25.0114 25.3566 24.9992 25.2887 24.995 25.22C24.9775 25.1225 24.9725 25.055 24.8688 25.0487C24.9238 25.03 25.015 25.0012 25.015 24.8612C25.015 24.66 24.84 24.6613 24.7487 24.6613H24.4875ZM24.6312 24.7825H24.7537C24.7912 24.7825 24.8638 24.7825 24.8638 24.885C24.8638 24.9275 24.845 24.9975 24.7463 24.995H24.6312V24.7825ZM20.2 25.4025C19.1962 25.4025 18.6 25.8313 18.6 26.5363C18.6 27.3088 19.1975 27.515 20.1588 27.6113C21.3088 27.7275 21.3987 27.8925 21.3987 28.1175C21.3987 28.5125 21.0812 28.6762 20.3387 28.6762C19.4075 28.6762 19.2038 28.4462 19.1363 27.9837C19.13 27.9337 19.0863 27.8975 19.0313 27.8975H18.5738C18.5601 27.8975 18.5465 27.9002 18.5339 27.9055C18.5213 27.9108 18.5099 27.9186 18.5004 27.9284C18.4908 27.9382 18.4833 27.9498 18.4783 27.9625C18.4733 27.9752 18.4709 27.9888 18.4713 28.0025C18.4713 28.5925 18.7938 29.2987 20.3325 29.2987C21.4613 29.2987 22.1 28.8613 22.1 28.0938C22.1 27.3338 21.5875 27.1312 20.505 26.985C19.41 26.8387 19.3012 26.765 19.3012 26.5088C19.3012 26.2963 19.3912 26.0175 20.2012 26.0175C20.9237 26.0175 21.1937 26.1762 21.3037 26.6625C21.3162 26.7125 21.35 26.7412 21.3987 26.7412H21.855C21.885 26.7412 21.9112 26.7287 21.9287 26.7112C21.9475 26.6875 21.9587 26.6637 21.9537 26.6337C21.8812 25.7937 21.3262 25.4025 20.2 25.4025Z" fill="url(#paint0_linear_23_100)"/>
<defs>
<linearGradient id="paint0_linear_23_100" x1="19.375" y1="7.5" x2="19.375" y2="32.0988" gradientUnits="userSpaceOnUse">
<stop stop-color="#0081A7"/>
<stop offset="1" stop-color="#00AFB9"/>
</linearGradient>
</defs>
</svg>
