<svg width="120" height="120" viewBox="0 0 120 120" fill="none" xmlns="http://www.w3.org/2000/svg">
<path d="M43.4601 56.165V37.49C43.4601 36.3733 43.8534 35.4233 44.6401 34.64C45.4267 33.8566 46.3801 33.4633 47.5001 33.46C48.6201 33.4566 49.5734 33.85 50.3601 34.64C51.1467 35.43 51.5401 36.38 51.5401 37.49V56.165C51.5401 57.2783 51.1467 58.2283 50.3601 59.015C49.5734 59.8017 48.6201 60.1933 47.5001 60.19C46.3801 60.1867 45.4267 59.795 44.6401 59.015C43.8534 58.235 43.4601 57.285 43.4601 56.165ZM65.1901 62.72V17.5C65.1901 16.3766 65.5834 15.4233 66.3701 14.64C67.1567 13.8566 68.1101 13.4633 69.2301 13.46C70.3501 13.4566 71.3034 13.85 72.0901 14.64C72.8767 15.43 73.2701 16.3833 73.2701 17.5V62.72C73.2701 64.0666 72.8567 65.0766 72.0301 65.75C71.2034 66.4233 70.2751 66.76 69.2451 66.76C68.2151 66.76 67.2817 66.4233 66.4451 65.75C65.6084 65.0766 65.1867 64.0666 65.1901 62.72ZM21.5401 73.435V57.5C21.5401 56.3766 21.9317 55.4233 22.7151 54.64C23.4984 53.8567 24.4517 53.4633 25.5751 53.46C26.6984 53.4567 27.6534 53.85 28.4401 54.64C29.2267 55.43 29.6184 56.3833 29.6151 57.5V73.435C29.6151 74.7783 29.2017 75.7866 28.3751 76.46C27.5484 77.1333 26.6201 77.47 25.5901 77.47C24.5601 77.47 23.6267 77.1333 22.7901 76.46C21.9534 75.7866 21.5367 74.7783 21.5401 73.435ZM26.9651 102.75C25.8484 102.75 25.0767 102.242 24.6501 101.225C24.2234 100.208 24.4167 99.2933 25.2301 98.48L44.7701 78.94C45.4934 78.2167 46.3851 77.8133 47.4451 77.73C48.5051 77.6466 49.4467 77.9666 50.2701 78.69L65.1901 91.52L98.9601 57.75H90.0001C89.2901 57.75 88.6967 57.51 88.2201 57.03C87.7401 56.55 87.5001 55.955 87.5001 55.245C87.5001 54.535 87.7401 53.9416 88.2201 53.465C88.7001 52.9883 89.2934 52.75 90.0001 52.75H103.46C104.607 52.75 105.567 53.1366 106.34 53.91C107.113 54.6833 107.5 55.6433 107.5 56.79V70.25C107.5 70.96 107.26 71.5533 106.78 72.03C106.3 72.51 105.705 72.75 104.995 72.75C104.285 72.75 103.692 72.51 103.215 72.03C102.738 71.55 102.5 70.9567 102.5 70.25V61.29L67.9801 95.81C67.2567 96.5333 66.3651 96.9366 65.3051 97.02C64.2451 97.1033 63.3034 96.7833 62.4801 96.06L47.5601 83.23L28.7701 102.02C28.5534 102.22 28.2851 102.392 27.9651 102.535C27.6451 102.678 27.3117 102.75 26.9651 102.75Z" fill="url(#paint0_linear_20_52)"/>
<defs>
<linearGradient id="paint0_linear_20_52" x1="64.52" y1="13.46" x2="64.52" y2="102.75" gradientUnits="userSpaceOnUse">
<stop stop-color="#0081A7"/>
<stop offset="1" stop-color="#00AFB9"/>
</linearGradient>
</defs>
</svg>
