<svg width="120" height="120" viewBox="0 0 120 120" fill="none" xmlns="http://www.w3.org/2000/svg">
<path d="M48 74.54L51.54 70.97L40.565 60L51.44 49.125L47.905 45.56L33.46 60L48 74.54ZM72 74.54L86.54 60L72 45.46L68.46 49.03L79.435 60L68.46 70.97L72 74.54ZM28.075 100C25.775 100 23.855 99.23 22.315 97.69C20.775 96.15 20.0033 94.2283 20 91.925V28.075C20 25.775 20.7717 23.855 22.315 22.315C23.8583 20.775 25.7783 20.0033 28.075 20H91.925C94.225 20 96.145 20.7717 97.685 22.315C99.225 23.8583 99.9967 25.7783 100 28.075V91.925C100 94.225 99.23 96.145 97.69 97.685C96.15 99.225 94.2283 99.9967 91.925 100H28.075ZM28.075 95H91.925C92.6917 95 93.3967 94.68 94.04 94.04C94.6833 93.4 95.0033 92.695 95 91.925V28.075C95 27.3083 94.68 26.6033 94.04 25.96C93.4 25.3167 92.695 24.9967 91.925 25H28.075C27.3083 25 26.6033 25.32 25.96 25.96C25.3167 26.6 24.9967 27.305 25 28.075V91.925C25 92.6917 25.32 93.3967 25.96 94.04C26.6 94.6833 27.305 95.0033 28.075 95Z" fill="url(#paint0_linear_22_55)"/>
<defs>
<linearGradient id="paint0_linear_22_55" x1="60" y1="20" x2="60" y2="100" gradientUnits="userSpaceOnUse">
<stop stop-color="#0081A7"/>
<stop offset="1" stop-color="#00AFB9"/>
</linearGradient>
</defs>
</svg>
