<svg width="120" height="120" viewBox="0 0 120 120" fill="none" xmlns="http://www.w3.org/2000/svg">
<path d="M45.54 58.79L56.96 47.34L46.69 37.04L42.675 41.06C42.2083 41.5267 41.6383 41.78 40.965 41.82C40.2917 41.86 39.6817 41.6067 39.135 41.06C38.5883 40.5133 38.3133 39.9183 38.31 39.275C38.3067 38.6317 38.5817 38.0367 39.135 37.49L43.125 33.5L33.365 23.74L21.915 35.19L45.54 58.79ZM84.71 97.99L96.16 86.54L86.405 76.78L82.385 80.77C81.8983 81.2567 81.325 81.5167 80.665 81.55C80.005 81.5833 79.3983 81.3233 78.845 80.77C78.2917 80.2167 78.0167 79.6267 78.02 79C78.0233 78.3733 78.2983 77.7833 78.845 77.23L82.835 73.21L72.635 63.04L61.21 74.46L84.71 97.99ZM24.04 100C22.88 100 21.9167 99.6167 21.15 98.85C20.3833 98.0833 20 97.12 20 95.96V85.875C20 85.335 20.0933 84.8333 20.28 84.37C20.4667 83.9067 20.7767 83.4567 21.21 83.02L41.97 62.26L18.23 38.425C17.3267 37.5183 16.875 36.44 16.875 35.19C16.875 33.94 17.3267 32.8633 18.23 31.96L30.13 20.06C31.0367 19.1533 32.115 18.705 33.365 18.715C34.615 18.725 35.6917 19.1817 36.595 20.085L60.56 43.925L82.895 21.56C83.445 21.0067 84.025 20.6083 84.635 20.365C85.245 20.1217 85.895 20 86.585 20C87.275 20 87.925 20.1217 88.535 20.365C89.145 20.6083 89.7267 21.0067 90.28 21.56L98.44 30.04C98.9933 30.59 99.3767 31.17 99.59 31.78C99.8033 32.39 99.9083 33.04 99.905 33.73C99.9017 34.42 99.795 35.05 99.585 35.62C99.375 36.1867 98.9933 36.7467 98.44 37.3L76.3 59.565L99.94 83.405C100.847 84.305 101.3 85.3817 101.3 86.635C101.3 87.8883 100.847 88.965 99.94 89.865L88.04 101.765C87.1367 102.672 86.06 103.125 84.81 103.125C83.56 103.125 82.4817 102.673 81.575 101.77L57.74 78.03L36.98 98.79C36.5467 99.2233 36.0967 99.5333 35.63 99.72C35.1633 99.9067 34.6617 100 34.125 100H24.04ZM25 95H33.635L82.735 45.935L74.065 37.27L25 86.37V95ZM78.46 41.565L74.065 37.27L82.73 45.935L78.46 41.565Z" fill="url(#paint0_linear_20_50)"/>
<defs>
<linearGradient id="paint0_linear_20_50" x1="59.0875" y1="18.7148" x2="59.0875" y2="103.125" gradientUnits="userSpaceOnUse">
<stop stop-color="#0081A7"/>
<stop offset="1" stop-color="#00AFB9"/>
</linearGradient>
</defs>
</svg>
