<svg width="40" height="40" viewBox="0 0 40 40" fill="none" xmlns="http://www.w3.org/2000/svg">
<path d="M33.3337 31.15L21.167 37.9C20.3337 38.3333 19.5003 38.3333 18.667 37.9L6.66699 31.15L28.417 9.23332L29.0003 9.06665C29.5003 9.06665 29.7837 9.28332 29.8337 9.73332L33.3337 31.15ZM15.5837 9.56665L8.00033 22.15L11.167 2.23332C11.217 1.78332 11.5003 1.56665 12.0003 1.56665C12.3337 1.56665 12.5503 1.66665 12.667 1.98332L16.2503 8.56665L15.5837 9.56665ZM23.0837 11.6667L7.16699 27.65L19.2503 7.14998C19.417 6.81665 19.667 6.66665 20.0003 6.66665C20.3337 6.66665 20.5503 6.81665 20.667 7.14998L23.0837 11.6667Z" fill="url(#paint0_linear_23_98)"/>
<defs>
<linearGradient id="paint0_linear_23_98" x1="20.0003" y1="1.56665" x2="20.0003" y2="38.225" gradientUnits="userSpaceOnUse">
<stop stop-color="#0081A7"/>
<stop offset="1" stop-color="#00AFB9"/>
</linearGradient>
</defs>
</svg>
