<svg width="120" height="120" viewBox="0 0 120 120" fill="none" xmlns="http://www.w3.org/2000/svg">
<path d="M22.075 55L33.31 43.77C33.7767 43.3033 34.0267 42.73 34.06 42.05C34.0933 41.37 33.8433 40.7633 33.31 40.23C32.7767 39.6967 32.1867 39.43 31.54 39.43C30.89 39.43 30.3 39.6967 29.77 40.23L17.825 52.175C17.0183 52.9817 16.615 53.9233 16.615 55C16.615 56.0767 17.0183 57.0183 17.825 57.825L29.77 69.77C30.2367 70.2367 30.81 70.4867 31.49 70.52C32.17 70.5533 32.7767 70.3033 33.31 69.77C33.8433 69.2367 34.11 68.6467 34.11 68C34.11 67.3533 33.8433 66.7633 33.31 66.23L22.075 55ZM97.925 55L86.69 66.23C86.2233 66.6967 85.9733 67.27 85.94 67.95C85.9067 68.63 86.1567 69.2367 86.69 69.77C87.2233 70.3033 87.8133 70.57 88.46 70.57C89.1067 70.57 89.6967 70.3033 90.23 69.77L102.175 57.825C102.982 57.0183 103.385 56.0767 103.385 55C103.385 53.9233 102.982 52.9817 102.175 52.175L90.23 40.23C89.7633 39.7633 89.19 39.5133 88.51 39.48C87.83 39.4467 87.2233 39.6967 86.69 40.23C86.1567 40.7633 85.89 41.3533 85.89 42C85.89 42.6467 86.1567 43.2367 86.69 43.77L97.925 55ZM15 33.85V28.07C15 25.77 15.7717 23.85 17.315 22.31C18.8583 20.77 20.7783 20 23.075 20H96.925C99.225 20 101.145 20.7717 102.685 22.315C104.225 23.8583 104.997 25.7783 105 28.075V33.85C105 34.5633 104.762 35.1583 104.285 35.635C103.808 36.1117 103.213 36.35 102.5 36.35C101.787 36.35 101.192 36.1117 100.715 35.635C100.238 35.1583 100 34.5617 100 33.845V28.075C100 27.1783 99.7117 26.4417 99.135 25.865C98.5583 25.2883 97.8217 25 96.925 25H23.075C22.1783 25 21.4417 25.2883 20.865 25.865C20.2883 26.4417 20 27.1783 20 28.075V33.85C20 34.5633 19.7617 35.1583 19.285 35.635C18.8083 36.1117 18.2133 36.35 17.5 36.35C16.7867 36.35 16.1917 36.1117 15.715 35.635C15.2383 35.1583 15 34.5667 15 33.85ZM49.04 100C47.88 100 46.9167 99.6167 46.15 98.85C45.3833 98.0833 45 97.12 45 95.96V90H23.075C20.775 90 18.855 89.23 17.315 87.69C15.775 86.15 15.0033 84.2283 15 81.925V76.185C15 75.4717 15.2383 74.8817 15.715 74.415C16.1917 73.9483 16.7867 73.715 17.5 73.715C18.2133 73.715 18.8083 73.9533 19.285 74.43C19.7617 74.9067 20 75.5 20 76.21V81.925C20 82.8217 20.2883 83.5583 20.865 84.135C21.4417 84.7117 22.1783 85 23.075 85H96.925C97.8217 85 98.5583 84.7117 99.135 84.135C99.7117 83.5583 100 82.8217 100 81.925V76.185C100 75.4717 100.238 74.8817 100.715 74.415C101.192 73.9483 101.787 73.715 102.5 73.715C103.213 73.715 103.808 73.9533 104.285 74.43C104.762 74.9067 105 75.5 105 76.21V81.925C105 84.225 104.23 86.145 102.69 87.685C101.15 89.225 99.2283 89.9967 96.925 90H75V95.96C75 97.12 74.6167 98.0833 73.85 98.85C73.0833 99.6167 72.12 100 70.96 100H49.04Z" fill="url(#paint0_linear_20_44)"/>
<defs>
<linearGradient id="paint0_linear_20_44" x1="60" y1="20" x2="60" y2="100" gradientUnits="userSpaceOnUse">
<stop stop-color="#0081A7"/>
<stop offset="1" stop-color="#00AFB9"/>
</linearGradient>
</defs>
</svg>
