<svg width="33" height="33" viewBox="0 0 33 33" fill="none" xmlns="http://www.w3.org/2000/svg">
<path d="M16.5 0C14.3332 0 12.1876 0.426785 10.1857 1.25599C8.18385 2.08519 6.3649 3.30057 4.83274 4.83274C1.73839 7.92709 0 12.1239 0 16.5C0 23.793 4.7355 29.9805 11.286 32.175C12.111 32.307 12.375 31.7955 12.375 31.35V28.5615C7.8045 29.5515 6.831 26.3505 6.831 26.3505C6.072 24.4365 4.9995 23.925 4.9995 23.925C3.498 22.902 5.115 22.935 5.115 22.935C6.765 23.0505 7.6395 24.6345 7.6395 24.6345C9.075 27.1425 11.5005 26.4 12.441 26.004C12.5895 24.9315 13.0185 24.2055 13.4805 23.793C9.8175 23.3805 5.973 21.9615 5.973 15.675C5.973 13.8435 6.6 12.375 7.6725 11.2035C7.5075 10.791 6.93 9.075 7.8375 6.8475C7.8375 6.8475 9.2235 6.402 12.375 8.5305C13.6785 8.1675 15.0975 7.986 16.5 7.986C17.9025 7.986 19.3215 8.1675 20.625 8.5305C23.7765 6.402 25.1625 6.8475 25.1625 6.8475C26.07 9.075 25.4925 10.791 25.3275 11.2035C26.4 12.375 27.027 13.8435 27.027 15.675C27.027 21.978 23.166 23.364 19.4865 23.7765C20.0805 24.288 20.625 25.2945 20.625 26.829V31.35C20.625 31.7955 20.889 32.3235 21.7305 32.175C28.281 29.964 33 23.793 33 16.5C33 14.3332 32.5732 12.1876 31.744 10.1857C30.9148 8.18385 29.6994 6.3649 28.1673 4.83274C26.6351 3.30057 24.8161 2.08519 22.8143 1.25599C20.8124 0.426785 18.6668 0 16.5 0Z" fill="#0081A7"/>
</svg>
