<svg width="42" height="42" viewBox="0 0 42 42" fill="none" xmlns="http://www.w3.org/2000/svg">
<rect x="1" y="1" width="40" height="40" rx="5" stroke="#009EA9" stroke-width="2"/>
<path d="M21 7C19.1615 7 17.341 7.35786 15.6424 8.05314C13.9439 8.74842 12.4005 9.76751 11.1005 11.0522C8.475 13.6468 7 17.1659 7 20.8352C7 26.9503 11.018 32.1385 16.576 33.9786C17.276 34.0893 17.5 33.6604 17.5 33.2868V30.9487C13.622 31.7788 12.796 29.0948 12.796 29.0948C12.152 27.4899 11.242 27.061 11.242 27.061C9.968 26.2032 11.34 26.2309 11.34 26.2309C12.74 26.3277 13.482 27.6559 13.482 27.6559C14.7 29.7588 16.758 29.1363 17.556 28.8042C17.682 27.9049 18.046 27.2962 18.438 26.9503C15.33 26.6044 12.068 25.4146 12.068 20.1434C12.068 18.6077 12.6 17.3764 13.51 16.3941C13.37 16.0482 12.88 14.6093 13.65 12.7416C13.65 12.7416 14.826 12.368 17.5 14.1528C18.606 13.8484 19.81 13.6962 21 13.6962C22.19 13.6962 23.394 13.8484 24.5 14.1528C27.174 12.368 28.35 12.7416 28.35 12.7416C29.12 14.6093 28.63 16.0482 28.49 16.3941C29.4 17.3764 29.932 18.6077 29.932 20.1434C29.932 25.4284 26.656 26.5906 23.534 26.9365C24.038 27.3654 24.5 28.2093 24.5 29.496V33.2868C24.5 33.6604 24.724 34.1031 25.438 33.9786C30.996 32.1247 35 26.9503 35 20.8352C35 19.0183 34.6379 17.2192 33.9343 15.5407C33.2307 13.8621 32.1995 12.3369 30.8995 11.0522C29.5995 9.76751 28.0561 8.74842 26.3576 8.05314C24.659 7.35786 22.8385 7 21 7Z" fill="#009EA9"/>
</svg>
