<svg width="42" height="42" viewBox="0 0 42 42" fill="none" xmlns="http://www.w3.org/2000/svg">
<rect x="1" y="1" width="40" height="40" rx="5" stroke="#009DB2" stroke-width="2"/>
<path d="M15.12 7H26.88C31.36 7 35 10.64 35 15.12V26.88C35 29.0336 34.1445 31.0989 32.6217 32.6217C31.0989 34.1445 29.0336 35 26.88 35H15.12C10.64 35 7 31.36 7 26.88V15.12C7 12.9664 7.8555 10.9011 9.37829 9.37829C10.9011 7.8555 12.9664 7 15.12 7ZM14.84 9.8C13.5033 9.8 12.2214 10.331 11.2762 11.2762C10.331 12.2214 9.8 13.5033 9.8 14.84V27.16C9.8 29.946 12.054 32.2 14.84 32.2H27.16C28.4967 32.2 29.7786 31.669 30.7238 30.7238C31.669 29.7786 32.2 28.4967 32.2 27.16V14.84C32.2 12.054 29.946 9.8 27.16 9.8H14.84ZM28.35 11.9C28.8141 11.9 29.2592 12.0844 29.5874 12.4126C29.9156 12.7408 30.1 13.1859 30.1 13.65C30.1 14.1141 29.9156 14.5592 29.5874 14.8874C29.2592 15.2156 28.8141 15.4 28.35 15.4C27.8859 15.4 27.4408 15.2156 27.1126 14.8874C26.7844 14.5592 26.6 14.1141 26.6 13.65C26.6 13.1859 26.7844 12.7408 27.1126 12.4126C27.4408 12.0844 27.8859 11.9 28.35 11.9ZM21 14C22.8565 14 24.637 14.7375 25.9497 16.0503C27.2625 17.363 28 19.1435 28 21C28 22.8565 27.2625 24.637 25.9497 25.9497C24.637 27.2625 22.8565 28 21 28C19.1435 28 17.363 27.2625 16.0503 25.9497C14.7375 24.637 14 22.8565 14 21C14 19.1435 14.7375 17.363 16.0503 16.0503C17.363 14.7375 19.1435 14 21 14ZM21 16.8C19.8861 16.8 18.8178 17.2425 18.0302 18.0302C17.2425 18.8178 16.8 19.8861 16.8 21C16.8 22.1139 17.2425 23.1822 18.0302 23.9698C18.8178 24.7575 19.8861 25.2 21 25.2C22.1139 25.2 23.1822 24.7575 23.9698 23.9698C24.7575 23.1822 25.2 22.1139 25.2 21C25.2 19.8861 24.7575 18.8178 23.9698 18.0302C23.1822 17.2425 22.1139 16.8 21 16.8Z" fill="#009DB2"/>
</svg>
