<svg width="60" height="40" viewBox="0 0 60 40" fill="none" xmlns="http://www.w3.org/2000/svg">
<path d="M53.8846 17.4167C51.4196 18.8323 48.2385 19.5185 45.0387 19.3248C41.8389 19.1311 38.8814 18.0733 36.8142 16.3833C32.4981 12.85 33.1771 7.56667 38.2933 4.65L39.53 4.01667C37.5237 5.5119 36.3779 7.45796 36.3065 9.49142C36.2351 11.5249 37.243 13.5067 39.142 15.0667C43.0944 18.3 49.9322 18.9333 55 16.6833L53.8846 17.4167ZM49.5685 24.2333C47.7429 25.2915 45.6311 26.0914 43.3546 26.5872C41.078 27.0829 38.6815 27.2648 36.3024 27.1223C33.9233 26.9799 31.6086 26.5159 29.4911 25.757C27.3735 24.9981 25.4949 23.9592 23.963 22.7C17.4888 17.4167 18.5072 9.53333 26.1937 5.06667L28.4245 4C25.5441 6.24269 23.9304 9.12151 23.877 12.1129C23.8236 15.1042 25.334 18.0094 28.1336 20.3C34.0015 25.0667 43.9915 26.1167 51.5326 22.9333L49.5685 24.2333ZM46.8285 32.3667C36.0626 38.5833 19.9863 37.6167 10.942 30.2C1.92181 22.8 3.32818 11.7333 14.0942 5.55L16.7856 4.23333C8.27471 10.5667 7.74126 20.45 16.0582 27.2667C24.3752 34.0667 38.6328 35.4333 49.229 30.7833L46.8285 32.3667Z" fill="url(#paint0_linear_23_96)"/>
<defs>
<linearGradient id="paint0_linear_23_96" x1="30" y1="4" x2="30" y2="36.4632" gradientUnits="userSpaceOnUse">
<stop stop-color="#0081A7"/>
<stop offset="1" stop-color="#00AFB9"/>
</linearGradient>
</defs>
</svg>
