<svg width="27" height="27" viewBox="0 0 27 27" fill="none" xmlns="http://www.w3.org/2000/svg">
<path d="M23.3333 0C24.1069 0 24.8487 0.307291 25.3957 0.854272C25.9427 1.40125 26.25 2.14312 26.25 2.91667V23.3333C26.25 24.1069 25.9427 24.8487 25.3957 25.3957C24.8487 25.9427 24.1069 26.25 23.3333 26.25H2.91667C2.14312 26.25 1.40125 25.9427 0.854272 25.3957C0.307291 24.8487 0 24.1069 0 23.3333V2.91667C0 2.14312 0.307291 1.40125 0.854272 0.854272C1.40125 0.307291 2.14312 0 2.91667 0H23.3333ZM22.6042 22.6042V14.875C22.6042 13.6141 22.1033 12.4049 21.2117 11.5133C20.3201 10.6217 19.1109 10.1208 17.85 10.1208C16.6104 10.1208 15.1667 10.8792 14.4667 12.0167V10.3979H10.3979V22.6042H14.4667V15.4146C14.4667 14.2917 15.3708 13.3729 16.4938 13.3729C17.0352 13.3729 17.5545 13.588 17.9374 13.9709C18.3203 14.3538 18.5354 14.8731 18.5354 15.4146V22.6042H22.6042ZM5.65833 8.10833C6.30811 8.10833 6.93128 7.85021 7.39075 7.39075C7.85021 6.93128 8.10833 6.30811 8.10833 5.65833C8.10833 4.30208 7.01458 3.19375 5.65833 3.19375C5.00469 3.19375 4.37781 3.45341 3.91561 3.91561C3.45341 4.37781 3.19375 5.00469 3.19375 5.65833C3.19375 7.01458 4.30208 8.10833 5.65833 8.10833ZM7.68542 22.6042V10.3979H3.64583V22.6042H7.68542Z" fill="#0081A7"/>
</svg>
