<svg width="40" height="40" viewBox="0 0 40 40" fill="none" xmlns="http://www.w3.org/2000/svg">
<path d="M19.9997 16.8499C21.7163 16.8499 23.1163 18.2499 23.1163 19.9999C23.1163 21.6666 21.7163 23.0833 19.9997 23.0833C18.283 23.0833 16.883 21.6666 16.883 19.9999C16.883 18.2499 18.283 16.8499 19.9997 16.8499ZM12.283 33.3333C13.333 33.9666 15.633 32.9999 18.283 30.4999C17.4163 29.5166 16.5663 28.4499 15.7663 27.3333C14.4234 27.2038 13.0882 27.0035 11.7663 26.7333C10.9163 30.2999 11.233 32.7499 12.283 33.3333ZM13.4663 23.7666L12.983 22.9166C12.7997 23.3999 12.6163 23.8833 12.4997 24.3499C12.9497 24.4499 13.4497 24.5333 13.9663 24.6166L13.4663 23.7666ZM24.3663 22.4999L25.7163 19.9999L24.3663 17.4999C23.8663 16.6166 23.333 15.8333 22.8497 15.0499C21.9497 14.9999 20.9997 14.9999 19.9997 14.9999C18.9997 14.9999 18.0497 14.9999 17.1497 15.0499C16.6663 15.8333 16.133 16.6166 15.633 17.4999L14.283 19.9999L15.633 22.4999C16.133 23.3833 16.6663 24.1666 17.1497 24.9499C18.0497 24.9999 18.9997 24.9999 19.9997 24.9999C20.9997 24.9999 21.9497 24.9999 22.8497 24.9499C23.333 24.1666 23.8663 23.3833 24.3663 22.4999ZM19.9997 11.2999C19.683 11.6666 19.3497 12.0499 19.0163 12.4999H20.983C20.6497 12.0499 20.3163 11.6666 19.9997 11.2999ZM19.9997 28.6999C20.3163 28.3333 20.6497 27.9499 20.983 27.4999H19.0163C19.3497 27.9499 19.683 28.3333 19.9997 28.6999ZM27.6997 6.66661C26.6663 6.03328 24.3663 6.99995 21.7163 9.49995C22.583 10.4833 23.433 11.5499 24.233 12.6666C25.5997 12.7999 26.9497 12.9999 28.233 13.2666C29.083 9.69995 28.7663 7.24995 27.6997 6.66661ZM26.533 16.2333L27.0163 17.0833C27.1997 16.5999 27.383 16.1166 27.4997 15.6499C27.0497 15.5499 26.5497 15.4666 26.033 15.3833L26.533 16.2333ZM28.9497 4.48328C31.3997 5.88328 31.6663 9.56661 30.633 13.8666C34.8663 15.1166 37.9163 17.1833 37.9163 19.9999C37.9163 22.8166 34.8663 24.8833 30.633 26.1333C31.6663 30.4333 31.3997 34.1166 28.9497 35.5166C26.5163 36.9166 23.1997 35.3166 19.9997 32.2666C16.7997 35.3166 13.483 36.9166 11.033 35.5166C8.59967 34.1166 8.33301 30.4333 9.36634 26.1333C5.13301 24.8833 2.08301 22.8166 2.08301 19.9999C2.08301 17.1833 5.13301 15.1166 9.36634 13.8666C8.33301 9.56661 8.59967 5.88328 11.033 4.48328C13.483 3.08328 16.7997 4.68328 19.9997 7.73328C23.1997 4.68328 26.5163 3.08328 28.9497 4.48328ZM28.4663 19.9999C29.033 21.2499 29.533 22.4999 29.9497 23.7666C33.4497 22.7166 35.4163 21.2166 35.4163 19.9999C35.4163 18.7833 33.4497 17.2833 29.9497 16.2333C29.533 17.4999 29.033 18.7499 28.4663 19.9999ZM11.533 19.9999C10.9663 18.7499 10.4663 17.4999 10.0497 16.2333C6.54967 17.2833 4.58301 18.7833 4.58301 19.9999C4.58301 21.2166 6.54967 22.7166 10.0497 23.7666C10.4663 22.4999 10.9663 21.2499 11.533 19.9999ZM26.533 23.7666L26.033 24.6166C26.5497 24.5333 27.0497 24.4499 27.4997 24.3499C27.383 23.8833 27.1997 23.3999 27.0163 22.9166L26.533 23.7666ZM21.7163 30.4999C24.3663 32.9999 26.6663 33.9666 27.6997 33.3333C28.7663 32.7499 29.083 30.2999 28.233 26.7333C26.9497 26.9999 25.5997 27.1999 24.233 27.3333C23.433 28.4499 22.583 29.5166 21.7163 30.4999ZM13.4663 16.2333L13.9663 15.3833C13.4497 15.4666 12.9497 15.5499 12.4997 15.6499C12.6163 16.1166 12.7997 16.5999 12.983 17.0833L13.4663 16.2333ZM18.283 9.49995C15.633 6.99995 13.333 6.03328 12.283 6.66661C11.233 7.24995 10.9163 9.69995 11.7663 13.2666C13.0882 12.9964 14.4234 12.7961 15.7663 12.6666C16.5663 11.5499 17.4163 10.4833 18.283 9.49995Z" fill="url(#paint0_linear_23_72)"/>
<defs>
<linearGradient id="paint0_linear_23_72" x1="19.9997" y1="3.97156" x2="19.9997" y2="36.0283" gradientUnits="userSpaceOnUse">
<stop stop-color="#0081A7"/>
<stop offset="1" stop-color="#00AFB9"/>
</linearGradient>
</defs>
</svg>
