<svg width="42" height="42" viewBox="0 0 42 42" fill="none" xmlns="http://www.w3.org/2000/svg">
<rect x="1" y="1" width="40" height="40" rx="5" stroke="#0089AA" stroke-width="2"/>
<path d="M18 25.2857L25.785 21L18 16.7143V25.2857ZM35.34 14.1C35.535 14.7714 35.67 15.6714 35.76 16.8143C35.865 17.9571 35.91 18.9429 35.91 19.8L36 21C36 24.1286 35.76 26.4286 35.34 27.9C34.965 29.1857 34.095 30.0143 32.745 30.3714C32.04 30.5571 30.75 30.6857 28.77 30.7714C26.82 30.8714 25.035 30.9143 23.385 30.9143L21 31C14.715 31 10.8 30.7714 9.255 30.3714C7.905 30.0143 7.035 29.1857 6.66 27.9C6.465 27.2286 6.33 26.3286 6.24 25.1857C6.135 24.0429 6.09 23.0571 6.09 22.2L6 21C6 17.8714 6.24 15.5714 6.66 14.1C7.035 12.8143 7.905 11.9857 9.255 11.6286C9.96 11.4429 11.25 11.3143 13.23 11.2286C15.18 11.1286 16.965 11.0857 18.615 11.0857L21 11C27.285 11 31.2 11.2286 32.745 11.6286C34.095 11.9857 34.965 12.8143 35.34 14.1Z" fill="#0089AA"/>
</svg>
