<svg width="41" height="29" viewBox="0 0 41 29" fill="none" xmlns="http://www.w3.org/2000/svg">
<path d="M16.4 20.5L27.0395 14.35L16.4 8.2V20.5ZM40.098 4.4485C40.3645 5.412 40.549 6.7035 40.672 8.3435C40.8155 9.9835 40.877 11.398 40.877 12.628L41 14.35C41 18.8395 40.672 22.14 40.098 24.2515C39.5855 26.0965 38.3965 27.2855 36.5515 27.798C35.588 28.0645 33.825 28.249 31.119 28.372C28.454 28.5155 26.0145 28.577 23.7595 28.577L20.5 28.7C11.9105 28.7 6.56 28.372 4.4485 27.798C2.6035 27.2855 1.4145 26.0965 0.902 24.2515C0.6355 23.288 0.451 21.9965 0.328 20.3565C0.1845 18.7165 0.123 17.302 0.123 16.072L0 14.35C0 9.8605 0.328 6.56 0.902 4.4485C1.4145 2.6035 2.6035 1.4145 4.4485 0.902C5.412 0.6355 7.175 0.451 9.881 0.328C12.546 0.1845 14.9855 0.123 17.2405 0.123L20.5 0C29.0895 0 34.44 0.328 36.5515 0.902C38.3965 1.4145 39.5855 2.6035 40.098 4.4485Z" fill="#0081A7"/>
</svg>
